<svg width="240" height="50" viewBox="0 0 240 50" fill="none" xmlns="http://www.w3.org/2000/svg">
<g filter="url(#filter0_d_2_7)">
<path d="M14.616 28.432H23.064V34H10.872C8.76 32.016 7.16 29.504 6.072 26.464C4.984 23.424 4.44 20.304 4.44 17.104C4.44 13.872 5.048 10.768 6.264 7.792C7.48 4.816 9.288 2.352 11.688 0.399998H23.064V6.16H14.616C13.752 7.152 13 8.752 12.36 10.96C11.752 13.168 11.448 15.28 11.448 17.296C11.448 19.312 11.752 21.424 12.36 23.632C13 25.84 13.752 27.44 14.616 28.432ZM37.5293 9.472H42.0893C43.4973 11.264 44.4573 13.056 44.9693 14.848C45.4813 16.64 45.7373 18.88 45.7373 21.568V34H39.3533V21.088C39.3533 18.048 38.9373 15.856 38.1053 14.512H32.7293V34H26.3453V0.399998H32.7293V11.2C33.4333 10.56 34.0893 10.112 34.6973 9.856C35.3373 9.6 36.2813 9.472 37.5293 9.472ZM49.689 34V9.472H56.025V34H49.689ZM49.689 0.399998H56.025V6.88H49.689V0.399998ZM76.2221 13.168L66.9581 28.96H76.1261V34H59.2301V30.304L68.6381 14.512H59.8061V9.472H76.2221V13.168ZM84.6499 13.792L84.0259 12.352C83.3539 11.04 83.0179 9.632 83.0179 8.128C83.0179 5.376 84.1539 3.52 86.4259 2.56H94.1539V8.32H89.2099L89.1139 8.608L97.5619 28.672V34H84.2179C82.3939 33.296 80.9539 32.08 79.8979 30.352C78.8739 28.624 78.3619 26.704 78.3619 24.592C78.3619 22.48 78.8899 20.48 79.9459 18.592C81.0019 16.672 82.5699 15.072 84.6499 13.792ZM87.0019 18.928C85.2419 20.432 84.3619 22.176 84.3619 24.16C84.3619 26.112 84.9859 27.616 86.2339 28.672H91.2739L87.0019 18.928ZM101.538 34V0.399998H115.218C116.786 0.975998 118.178 1.984 119.394 3.424C120.61 4.864 121.218 6.608 121.218 8.656C121.218 12.272 120.034 14.8 117.666 16.24V16.432C120.61 18.064 122.082 20.624 122.082 24.112C122.082 28.112 120.05 31.408 115.986 34H101.538ZM108.066 14.272H112.818C114.226 13.408 114.93 12.096 114.93 10.336C114.93 8.576 114.274 7.184 112.962 6.16H108.066V14.272ZM108.066 28.432H113.01C113.586 28.016 114.098 27.36 114.546 26.464C115.026 25.568 115.266 24.672 115.266 23.776C115.266 22.88 115.074 22.064 114.69 21.328C114.306 20.592 113.826 20.048 113.25 19.696H108.066V28.432ZM133.841 34H128.801C127.393 32.208 126.433 30.416 125.921 28.624C125.409 26.832 125.153 24.592 125.153 21.904V9.472H131.537V22.384C131.537 25.296 132.113 27.488 133.265 28.96H137.729V9.472H144.113V34H139.073L138.209 32.272C136.993 33.424 135.537 34 133.841 34ZM148.268 34V9.472H152.828L154.028 12.064C155.308 10.336 156.924 9.472 158.876 9.472H160.748V15.904H154.652V34H148.268ZM181.187 9.472V31.456C181.187 33.888 180.867 35.84 180.227 37.312C179.619 38.784 178.387 40.08 176.531 41.2H165.587V36.208H173.795C174.595 35.728 174.995 34.96 174.995 33.904V31.072C173.811 32.064 171.923 32.56 169.331 32.56H165.827C163.235 29.456 161.939 25.856 161.939 21.76C161.939 18.816 162.355 16.416 163.187 14.56C164.019 12.672 165.235 10.976 166.835 9.472H170.387C172.467 9.472 174.115 10.144 175.331 11.488L176.195 9.472H181.187ZM174.803 14.512H170.147C168.995 16.496 168.419 18.784 168.419 21.376C168.419 23.936 168.915 26.048 169.907 27.712H174.803V14.512ZM196.199 14.512H192.599C192.119 15.088 191.719 15.888 191.399 16.912C191.111 17.936 190.967 18.928 190.967 19.888H197.831C197.895 18.928 197.767 17.936 197.447 16.912C197.127 15.856 196.711 15.056 196.199 14.512ZM202.727 28.96V34H190.535C188.295 32.496 186.711 30.64 185.783 28.432C184.887 26.192 184.439 23.936 184.439 21.664C184.439 16.416 186.423 12.352 190.391 9.472H198.167C200.311 11.04 201.767 12.704 202.535 14.464C203.303 16.224 203.687 18 203.687 19.792C203.687 21.584 203.543 23.12 203.255 24.4H191.303C191.399 25.136 191.671 25.984 192.119 26.944C192.599 27.872 193.111 28.544 193.655 28.96H202.727ZM206.956 34V9.472H211.516L212.716 12.064C213.996 10.336 215.612 9.472 217.564 9.472H219.436V15.904H213.34V34H206.956ZM224.12 9.472H234.728V14.512H227.24L231.8 21.28C233.848 24.192 234.984 26.192 235.208 27.28C235.336 27.792 235.4 28.32 235.4 28.864C235.4 31.136 234.552 32.848 232.856 34H220.616V28.96H229.4L224.264 21.424C224.04 21.072 223.688 20.576 223.208 19.936C222.76 19.296 222.408 18.784 222.152 18.4C221.896 17.984 221.72 17.68 221.624 17.488C221.528 17.296 221.4 17.056 221.24 16.768C221.08 16.448 220.968 16.176 220.904 15.952C220.776 15.344 220.712 14.848 220.712 14.464C220.712 12.128 221.848 10.464 224.12 9.472Z" fill="black"/>
</g>
<defs>
<filter id="filter0_d_2_7" x="0.440002" y="0.399994" width="238.96" height="48.8" filterUnits="userSpaceOnUse" color-interpolation-filters="sRGB">
<feFlood flood-opacity="0" result="BackgroundImageFix"/>
<feColorMatrix in="SourceAlpha" type="matrix" values="0 0 0 0 0 0 0 0 0 0 0 0 0 0 0 0 0 0 127 0" result="hardAlpha"/>
<feOffset dy="4"/>
<feGaussianBlur stdDeviation="2"/>
<feComposite in2="hardAlpha" operator="out"/>
<feColorMatrix type="matrix" values="0 0 0 0 0 0 0 0 0 0 0 0 0 0 0 0 0 0 0.6 0"/>
<feBlend mode="normal" in2="BackgroundImageFix" result="effect1_dropShadow_2_7"/>
<feBlend mode="normal" in="SourceGraphic" in2="effect1_dropShadow_2_7" result="shape"/>
</filter>
</defs>
</svg>
